# Blender v2.78 (sub 0) OBJ File: ''
# www.blender.org
mtllib pooltable.mtl
o Plane
v -1.366200 0.000000 2.798548
v 1.366200 0.000000 2.798548
v -1.366200 0.000000 -2.798548
v 1.366200 0.000000 -2.798548
v -1.366200 0.000000 0.000000
v 1.366200 0.000000 0.000000
v -1.543174 0.000000 0.000000
v 1.543174 0.000000 0.000000
v -1.366200 0.144238 0.000000
v -1.366200 0.144238 2.798548
v 1.366200 0.144238 2.798548
v 1.366200 0.144238 0.000000
v 1.366200 0.144238 -2.798548
v -1.366200 0.144238 -2.798548
v -1.543174 0.144238 0.000000
v 1.543174 0.144238 0.000000
v -1.369565 0.000000 2.966582
v -1.543174 0.000000 2.792972
v -1.436002 0.000000 2.953367
v -1.492325 0.000000 2.915733
v -1.529959 0.000000 2.859410
v 1.543174 0.000000 2.792972
v 1.369565 0.000000 2.966582
v 1.529959 0.000000 2.859410
v 1.492325 0.000000 2.915733
v 1.436002 0.000000 2.953367
v -1.543174 0.000000 -2.792972
v -1.369565 0.000000 -2.966582
v -1.529959 0.000000 -2.859410
v -1.492325 0.000000 -2.915733
v -1.436002 0.000000 -2.953367
v 1.369565 0.000000 -2.966582
v 1.543174 0.000000 -2.792972
v 1.436002 0.000000 -2.953367
v 1.492325 0.000000 -2.915733
v 1.529959 0.000000 -2.859410
v -1.543174 0.144238 2.792972
v -1.369565 0.144238 2.966582
v -1.417275 0.144238 2.847043
v -1.529959 0.144238 2.859410
v -1.492325 0.144238 2.915733
v -1.436002 0.144238 2.953367
v 1.369565 0.144238 2.966582
v 1.543174 0.144238 2.792972
v 1.417275 0.144238 2.847043
v 1.436002 0.144238 2.953367
v 1.492325 0.144238 2.915733
v 1.529959 0.144238 2.859410
v 1.543174 0.144238 -2.792972
v 1.369565 0.144238 -2.966582
v 1.417275 0.144238 -2.847043
v 1.529959 0.144238 -2.859410
v 1.492325 0.144238 -2.915733
v 1.436002 0.144238 -2.953367
v -1.369565 0.144238 -2.966582
v -1.543174 0.144238 -2.792972
v -1.417275 0.144238 -2.847043
v -1.436002 0.144238 -2.953367
v -1.492325 0.144238 -2.915733
v -1.529959 0.144238 -2.859410
vn 0.0000 1.0000 0.0000
vn 0.0000 0.0000 -1.0000
vn 1.0000 0.0000 0.0000
vn 0.0000 0.0000 1.0000
vn -1.0000 0.0000 0.0000
vn 0.9808 0.0000 -0.1951
vn 0.8315 0.0000 -0.5556
vn 0.5556 0.0000 -0.8315
vn 0.1951 0.0000 -0.9808
vn -0.9808 0.0000 -0.1951
vn -0.8315 0.0000 -0.5556
vn -0.5556 0.0000 -0.8315
vn -0.1951 0.0000 -0.9808
vn -0.1951 0.0000 0.9808
vn -0.5556 0.0000 0.8315
vn -0.8315 0.0000 0.5556
vn -0.9808 0.0000 0.1951
vn 0.9808 0.0000 0.1951
vn 0.8315 0.0000 0.5556
vn 0.5556 0.0000 0.8315
vn 0.1951 0.0000 0.9808
usemtl None
s off
f 5//1 6//1 4//1 3//1
f 1//1 2//1 6//1 5//1
f 32//2 28//2 55//2 50//2
f 5//3 3//3 14//3 9//3
f 22//3 8//3 16//3 44//3
f 1//3 5//3 9//3 10//3
f 8//3 33//3 49//3 16//3
f 3//4 4//4 13//4 14//4
f 9//1 14//1 57//1 56//1 15//1
f 12//1 11//1 45//1 44//1 16//1
f 14//1 13//1 51//1 50//1 55//1 57//1
f 13//1 12//1 16//1 49//1 51//1
f 10//1 9//1 15//1 37//1 39//1
f 2//2 1//2 10//2 11//2
f 7//5 18//5 37//5 15//5
f 6//5 2//5 11//5 12//5
f 27//5 7//5 15//5 56//5
f 4//5 6//5 12//5 13//5
f 11//1 10//1 39//1 38//1 43//1 45//1
f 37//1 40//1 39//1
f 40//1 41//1 39//1
f 41//1 42//1 39//1
f 42//1 38//1 39//1
f 43//1 46//1 45//1
f 46//1 47//1 45//1
f 47//1 48//1 45//1
f 48//1 44//1 45//1
f 49//1 52//1 51//1
f 52//1 53//1 51//1
f 53//1 54//1 51//1
f 54//1 50//1 51//1
f 55//1 58//1 57//1
f 58//1 59//1 57//1
f 59//1 60//1 57//1
f 60//1 56//1 57//1
f 49//6 33//6 36//6 52//6
f 52//7 36//7 35//7 53//7
f 53//8 35//8 34//8 54//8
f 54//9 34//9 32//9 50//9
f 27//10 56//10 60//10 29//10
f 29//11 60//11 59//11 30//11
f 30//12 59//12 58//12 31//12
f 31//13 58//13 55//13 28//13
f 17//14 38//14 42//14 19//14
f 19//15 42//15 41//15 20//15
f 20//16 41//16 40//16 21//16
f 21//17 40//17 37//17 18//17
f 22//18 44//18 48//18 24//18
f 24//19 48//19 47//19 25//19
f 25//20 47//20 46//20 26//20
f 26//21 46//21 43//21 23//21
f 17//4 23//4 43//4 38//4
